<?xml version="1.0" encoding="iso-8859-1"?>
<!-- Uploaded to: SVG Repo, www.svgrepo.com, Generator: SVG Repo Mixer Tools -->
<!DOCTYPE svg PUBLIC "-//W3C//DTD SVG 1.1//EN" "http://www.w3.org/Graphics/SVG/1.1/DTD/svg11.dtd">
<svg fill="#000000" version="1.1" id="Capa_1" xmlns="http://www.w3.org/2000/svg" xmlns:xlink="http://www.w3.org/1999/xlink" 
	 width="800px" height="800px" viewBox="0 0 36.568 36.568"
	 xml:space="preserve">
<g>
	<path d="M9.745,20.374c-0.075-0.212-0.267-0.257-0.451-0.319c-0.064-0.271,0.103-0.537,0.371-0.545
		c-0.022,0.053-0.04,0.096-0.063,0.147c0.015,0.008,0.037,0.03,0.06,0.03c0.251,0.002,0.503,0.013,0.753-0.006
		c0.145-0.01,0.288-0.06,0.428-0.102c0.029-0.009,0.07-0.082,0.062-0.092c-0.049-0.062-0.11-0.165-0.168-0.165
		c-0.225,0-0.49-0.123-0.641,0.188c-0.015-0.013-0.029-0.024-0.044-0.037c0.013-0.062,0.035-0.125,0.038-0.189
		c0.006-0.087,0-0.175-0.009-0.262c-0.003-0.043-0.023-0.086-0.039-0.129c-0.021-0.062-0.046-0.125-0.068-0.187
		c-0.004-0.01-0.01-0.019-0.013-0.028c-0.047-0.146,0.169-0.455,0.322-0.438c0.2,0.022,0.408,0.045,0.593,0.116
		c0.097,0.037,0.161,0.177,0.226,0.279c0.061,0.096,0.339,0.222,0.439,0.183c0.125-0.05,0.182-0.281,0.103-0.392
		c-0.032-0.045-0.038-0.107-0.059-0.17c0.196-0.035,0.198,0.076,0.2,0.188c0.002,0.099,0,0.197,0,0.296
		c0.021,0.003,0.041,0.006,0.062,0.009c0.014-0.04,0.038-0.079,0.039-0.12c0.001-0.165-0.003-0.331-0.012-0.497
		c-0.006-0.117,0.023-0.186,0.158-0.174c0.105,0.008,0.212,0.001,0.332,0.001c-0.028-0.129,0.062-0.217,0.026-0.357
		c-0.041-0.162,0.031-0.359,0.079-0.535c0.036-0.133,0.168-0.092,0.238-0.051c0.148,0.086,0.278,0.203,0.417,0.305
		c0.076,0.055,0.154,0.105,0.235,0.15c0.014,0.007,0.058-0.02,0.071-0.04c0.1-0.15,0.196-0.303,0.291-0.457
		c0.072-0.118,0.159-0.199,0.314-0.187c0.141,0.012,0.282,0.003,0.449,0.003c-0.094-0.191-0.354-0.114-0.356-0.136
		c0.064-0.071,0.12-0.154,0.195-0.213c0.122-0.096,0.184,0.051,0.257,0.096c0.177,0.108,0.211,0.111,0.309-0.065
		c0.014-0.022,0.046-0.048,0.07-0.05c0.106-0.007,0.214-0.012,0.32-0.004c0.028,0.002,0.053,0.055,0.079,0.085
		c-0.112,0.008,0.052,0.081-0.005-0.005c0.031,0.002,0.064,0.009,0.096,0.005c0.093-0.01,0.261-0.014,0.264-0.038
		c0.015-0.114-0.018-0.233-0.029-0.352c-0.005-0.055-0.012-0.112-0.001-0.165c0.013-0.064,0.046-0.125,0.063-0.189
		c0.032-0.113,0.084-0.228,0.08-0.341c-0.004-0.118-0.035-0.252-0.101-0.349c-0.175-0.261-0.38-0.5-0.562-0.756
		c-0.197-0.275-0.416-0.527-0.683-0.74c-0.205-0.163-0.392-0.353-0.601-0.511c-0.056-0.042-0.169-0.038-0.244-0.017
		c-0.135,0.039-0.256,0.125-0.392,0.158c-0.207,0.05-0.374,0.164-0.55,0.272c-0.206,0.128-0.438,0.217-0.652,0.331
		c-0.259,0.14-0.514,0.288-0.77,0.435c-0.135,0.077-0.272,0.148-0.4,0.235c-0.121,0.082-0.236,0.176-0.345,0.275
		c-0.158,0.145-0.131,0.214,0.07,0.304c0.146,0.064,0.265,0.204,0.414,0.246c0.265,0.075,0.354,0.368,0.609,0.443
		c0.071,0.021,0.084,0.271,0.033,0.354c-0.031,0.05-0.049,0.106-0.072,0.16c-0.021,0.051-0.042,0.101-0.063,0.151
		c-0.034,0.084-0.06,0.169,0.039,0.235c-0.13,0.148-0.294,0.214-0.486,0.252c-0.141,0.027-0.269,0.148-0.406,0.156
		c-0.356,0.021-0.716,0.006-1.072-0.003c-0.054-0.001-0.106-0.06-0.157-0.058c-0.259,0.01-0.398-0.175-0.553-0.33
		c-0.06-0.062-0.089-0.153-0.148-0.272c-0.354,0.245-0.697,0.503-0.982,0.82c0.119,0.237,0.231,0.473,0.355,0.702
		c0.03,0.057,0.099,0.092,0.142,0.145c0.133,0.158,0.337,0.184,0.506,0.272c0.134,0.072,0.27,0.146,0.43,0.229
		c-0.048,0.035-0.075,0.045-0.075,0.059c-0.014,0.208-0.219,0.188-0.332,0.275c-0.016,0.014-0.069-0.002-0.092-0.021
		C8.646,18.84,8.62,18.79,8.58,18.758c-0.073-0.062-0.153-0.027-0.175,0.07c-0.01,0.047-0.01,0.098-0.025,0.143
		c-0.072,0.207-0.279,0.275-0.427,0.403c-0.068,0.06-0.19,0.058-0.331,0.095c-0.088-0.095-0.218-0.211-0.322-0.347
		c-0.173-0.226-0.335-0.349-0.459-0.841c-0.109-0.436,0.077-0.808,0.063-1.148c0.057-0.321,0.901-1.351,0.975-1.518
		c0.002-0.005,0.008-0.012,0.006-0.014c-0.157-0.19,0.071-0.206,0.136-0.29c0.081-0.105,0.18-0.197,0.265-0.288
		c-0.069-0.144-0.134-0.278-0.201-0.419c0.235-0.113,0.433-0.246,0.65-0.306c0.205-0.056,0.406-0.176,0.637-0.116
		c0.147,0.038,0.271-0.021,0.377-0.12c0.456-0.424,0.911-0.85,1.367-1.274c0.39-0.363,0.761-0.753,1.182-1.075
		c0.232-0.178,0.493-0.321,0.705-0.533c0.139-0.141,0.275-0.285,0.43-0.408c0.127-0.102,0.277-0.174,0.418-0.258
		c0.236-0.14,0.475-0.278,0.688-0.404c-0.056-0.165-0.109-0.316-0.156-0.47c-0.064-0.206-0.311-0.383-0.524-0.398
		c-0.273-0.021-0.555-0.029-0.816-0.102c-0.346-0.095-0.654-0.29-0.84-0.607c-0.133-0.228-0.194-0.504-0.115-0.764
		c0.113-0.368,0.319-0.685,0.625-0.938c0.182-0.151,0.361-0.295,0.575-0.398c0.063-0.03,0.094-0.137,0.128-0.214
		c0.152-0.344,0.415-0.576,0.746-0.737c0.194-0.095,0.394-0.183,0.594-0.27c0.037-0.016,0.084-0.013,0.127-0.014
		c0.263-0.002,0.526,0.002,0.789-0.005c0.21-0.007,0.361,0.12,0.521,0.223c0.035,0.023,0.038,0.096,0.059,0.152
		c0.225,0.037,0.46,0.062,0.688,0.116c0.127,0.028,0.245,0.098,0.365,0.153c0.079,0.037,0.162,0.073,0.232,0.125
		c0.146,0.107,0.299,0.213,0.426,0.342c0.27,0.275,0.211,0.627,0.195,0.966c-0.162,0.114-0.009,0.354-0.185,0.464
		c0.025,0.038,0.052,0.077,0.093,0.14c-0.046,0.063-0.097,0.135-0.148,0.207c-0.024-0.004-0.047-0.007-0.07-0.011
		c0.049,0.017,0.098,0.033,0.147,0.05c-0.011,0.014-0.021,0.027-0.031,0.041c-0.055,0.021-0.109,0.044-0.175,0.07
		c0.088,0.053,0.16,0.096,0.227,0.136c0.291-0.186,0.577-0.386,0.879-0.557c0.317-0.18,0.665-0.31,0.971-0.505
		c0.26-0.167,0.491-0.386,0.716-0.602c0.204-0.196,0.185-0.204,0.021-0.469c-0.063-0.106-0.082-0.242-0.118-0.366
		c-0.024-0.08-0.044-0.162-0.073-0.272c0.055-0.051,0.134-0.124,0.214-0.196c0.015-0.013,0.044-0.029,0.043-0.038
		c-0.045-0.194,0.152-0.232,0.227-0.349c0.06-0.091,0.145-0.165,0.23-0.263c0.059,0.054,0.133,0.121,0.204,0.186
		c-0.007,0.021-0.008,0.036-0.014,0.039c-0.191,0.083-0.202,0.168-0.046,0.312c0.052,0.046,0.092,0.104,0.138,0.159
		c0.049-0.179,0.087-0.359,0.146-0.532c0.055-0.155,0.14-0.299,0.197-0.452c0.04-0.102,0.071-0.209,0.082-0.316
		c0.016-0.144,0.001-0.29,0.012-0.435c0.008-0.093,0.037-0.184,0.058-0.276c0.005-0.025,0.018-0.054,0.013-0.078
		c-0.046-0.271-0.033-0.563-0.197-0.799c-0.038-0.055-0.202-0.088-0.263-0.052c-0.269,0.156-0.531,0.134-0.758-0.03
		c-0.207-0.148-0.356-0.359-0.327-0.65c0.016-0.159,0.062-0.268,0.228-0.314c0.086-0.025,0.164-0.08,0.259-0.127
		c-0.022-0.03-0.049-0.064-0.075-0.1c0.099-0.127,0.197-0.254,0.312-0.4c-0.126-0.026-0.201-0.043-0.272-0.058
		c0.017-0.084,0.029-0.152,0.044-0.221c0.027-0.148,0.076-0.281,0.23-0.348c0.029-0.014,0.05-0.063,0.062-0.1
		c0.015-0.048,0.016-0.101,0.021-0.15C21.194,0.005,21.208,0.002,21.222,0c0.016,0.049,0.028,0.099,0.047,0.158
		c0.109-0.003,0.15,0.062,0.202,0.164c0.083,0.164,0.226,0.298,0.335,0.45c0.066,0.092,0.115,0.198,0.184,0.289
		c0.112,0.15,0.231,0.297,0.354,0.441c0.091,0.107,0.167,0.216,0.164,0.363c-0.004,0.193-0.008,0.386-0.008,0.579
		c0,0.136-0.035,0.28,0.086,0.391c0.013,0.012,0.011,0.041,0.014,0.062c0.06,0.421,0.078,0.847,0.13,1.266
		c0.062,0.497,0.084,0.99,0.053,1.483c-0.018,0.25-0.036,0.521-0.177,0.751c-0.028,0.049-0.08,0.091-0.094,0.144
		c-0.032,0.13,0.1,0.319,0.25,0.386c0.066,0.03,0.137,0.06,0.192,0.104c0.213,0.174,0.421,0.354,0.634,0.529
		c0.043,0.034,0.1,0.054,0.174,0.092c-0.018,0.16-0.075,0.319-0.187,0.459c-0.131,0.162-0.24,0.351-0.399,0.477
		c-0.188,0.149-0.361,0.333-0.611,0.39c-0.093,0.021-0.181,0.073-0.271,0.079c-0.173,0.011-0.241-0.065-0.251-0.239
		c-0.001-0.032-0.009-0.065-0.005-0.097c0.029-0.236-0.099-0.429-0.179-0.634c-0.003-0.005-0.006-0.009-0.008-0.015
		c-0.034-0.147-0.07-0.296-0.101-0.421c-0.104-0.045-0.182-0.078-0.268-0.114c-0.27,0.267-0.525,0.575-0.836,0.813
		c-0.247,0.191-0.485,0.384-0.687,0.619c-0.167,0.194-0.316,0.407-0.453,0.624c-0.113,0.179-0.188,0.383-0.301,0.562
		c-0.327,0.521,0.363,1.709,0.602,2.224c0.279,0.604-0.107,1.274-0.123,2.37c-0.014,0.92,0.128,2.001,0.127,2.133
		c0,0.09,0.062,0.183,0.104,0.271c0.033,0.07,0.081,0.134,0.127,0.209c0.028-0.025,0.06-0.063,0.098-0.088
		c0.16-0.107,0.366-0.034,0.43,0.149c0.072,0.214,0.13,0.249,0.43,0.229c-0.038-0.104-0.096-0.195-0.103-0.292
		c-0.011-0.16,0.006-0.323,0.022-0.484c0.005-0.054,0.04-0.11,0.076-0.153c0.072-0.083,0.159-0.141,0.28-0.127
		c0.188,0.021,0.38-0.023,0.562,0.082c0.074,0.043,0.189,0.009,0.285,0.018c0.111,0.012,0.243-0.057,0.326,0.088
		c0.012,0.021,0.104,0.022,0.136,0c0.375-0.283,0.807-0.3,1.249-0.281c0.188,0.008,0.376-0.001,0.564-0.001
		c0.134-0.001,0.201,0.047,0.171,0.197c-0.006,0.024,0.059,0.085,0.098,0.094c0.208,0.039,0.421,0.063,0.629,0.104
		c0.1,0.02,0.196,0.063,0.291,0.104c0.119,0.053,0.229,0.145,0.354,0.168c0.435,0.08,0.738,0.349,1.029,0.651
		c0.209,0.215,0.437,0.413,0.653,0.618c0.255,0.244,0.344,0.543,0.292,0.889c-0.003,0.016-0.003,0.034-0.011,0.046
		c-0.025,0.034-0.055,0.065-0.08,0.097c0.062,0.041,0.12,0.099,0.188,0.116c0.086,0.022,0.183,0.011,0.272,0.019
		c0.277,0.022,0.452,0.217,0.405,0.461c-0.013,0.063-0.061,0.123-0.098,0.181c-0.054,0.083-0.113,0.161-0.168,0.243
		c-0.011,0.017-0.016,0.045-0.01,0.062c0.039,0.098,0.076,0.197,0.127,0.291c0.023,0.043,0.087,0.104,0.112,0.096
		c0.084-0.025,0.168-0.07,0.235-0.127c0.153-0.125,0.393-0.045,0.48,0.127c0.146,0.283,0.089,0.576,0.103,0.867
		c0.003,0.067,0,0.135,0,0.203c0.028,0.006,0.044,0.012,0.06,0.012c0.094,0.007,0.204-0.021,0.221,0.125
		c0.017,0.14,0.018,0.272-0.143,0.339c-0.229,0.095-0.322,0.282-0.339,0.514c-0.01,0.155,0.014,0.313-0.001,0.467
		c-0.025,0.294-0.042,0.591-0.114,0.873c-0.037,0.142-0.188,0.259-0.296,0.378c-0.066,0.073-0.148,0.135-0.23,0.193
		c-0.187,0.131-0.383,0.251-0.564,0.389c-0.129,0.098-0.274,0.192-0.256,0.396c0.006,0.043-0.04,0.111-0.081,0.135
		c-0.104,0.059-0.22,0.105-0.335,0.143c-0.031,0.01-0.103-0.024-0.118-0.058c-0.052-0.101-0.103-0.206-0.121-0.313
		c-0.034-0.19-0.176-0.306-0.424-0.271c0.05,0.091,0.071,0.189,0.134,0.234c0.119,0.086,0.082,0.188,0.08,0.289
		c-0.249,0.115-0.39-0.049-0.55-0.183c-0.117-0.1-0.255-0.18-0.388-0.263c-0.131-0.081-0.269-0.152-0.401-0.23
		c-0.081-0.049-0.158-0.103-0.261-0.168c-0.085,0.088-0.169,0.189-0.268,0.277c-0.114,0.1-0.231,0.199-0.362,0.273
		c-0.115,0.065-0.104,0.162-0.071,0.242c0.058,0.146,0.134,0.284,0.219,0.416c0.027,0.043,0.116,0.043,0.161,0.081
		c0.151,0.138,0.099,0.335-0.098,0.449c-0.134,0.078-0.266,0.174-0.367,0.289c-0.106,0.121,0.055,0.197,0.102,0.286
		c0.073,0.138,0.172,0.263,0.261,0.393c0.023,0.034,0.052,0.067,0.081,0.098c0.163,0.16,0.183,0.421,0.023,0.539
		c-0.063,0.047-0.133,0.094-0.205,0.119c-0.132,0.047-0.268,0.082-0.402,0.113c-0.21,0.051-0.422,0.094-0.626,0.137
		c0.119,0.23,0.21,0.498,0.377,0.702c0.175,0.216,0.215,0.439,0.168,0.681c-0.038,0.197-0.125,0.388-0.214,0.567
		c-0.029,0.06-0.131,0.087-0.203,0.123c-0.192,0.099-0.386,0.194-0.58,0.29c-0.018,0.01-0.042,0.006-0.062,0.01
		c-0.217,0.041-0.433,0.082-0.688,0.131c0.028,0.099,0.061,0.19,0.082,0.285c0.025,0.104-0.18,0.355-0.3,0.359
		c-0.225,0.007-0.453-0.023-0.672,0.014c-0.225,0.038-0.478,0.08-0.612,0.291c-0.07,0.107-0.108,0.231-0.228,0.303
		c-0.056,0.031-0.106,0.068-0.183,0.117c0,0.39-0.022,0.809,0.008,1.225c0.021,0.27,0.094,0.544,0.192,0.796
		c0.104,0.261,0.153,0.554,0.367,0.763c0.034,0.033,0.082,0.055,0.127,0.073c0.062,0.026,0.126,0.058,0.191,0.067
		c0.052,0.009,0.135,0.006,0.153-0.022c0.064-0.097,0.128-0.06,0.188-0.017c0.12,0.089,0.231,0.188,0.352,0.274
		c0.118,0.085,0.21,0.491,0.129,0.607c-0.016,0.022-0.05,0.036-0.079,0.047c-0.062,0.022-0.126,0.041-0.188,0.063
		c-0.062,0.021-0.122,0.045-0.199,0.074c0.165,0.061-1.759-0.011-1.774-0.037c-0.075-0.123-0.819-1.393-0.971-1.558
		c-0.082-0.089-0.239,0.087-0.24,0.097c-0.056,0.379-0.119,1.521-0.119,1.521l-0.173-0.057c0,0-0.056-1.568-0.106-1.802
		c-0.03-0.137-0.146-0.299-0.2-0.43c-0.046-0.331,0.207-0.78,0.53-0.929c0.288-0.133,0.34-0.355,0.464-0.569
		c0.188-0.322,0.055-0.664,0.103-0.978c-0.829-0.183-1.494-0.533-1.813-1.396c-0.118,0.188-0.231,0.356-0.331,0.534
		c-0.047,0.084-0.2,0.131-0.289,0.074c-0.04-0.024-0.095-0.023-0.132-0.049c-0.105-0.072-0.177-0.164-0.166-0.304
		c0.005-0.063-0.005-0.127-0.009-0.188c-0.278,0.017-0.382,0.236-0.534,0.403c-0.276,0.306-0.571,0.595-0.843,0.905
		c-0.137,0.156-0.235,0.348-0.355,0.521c-0.104,0.148-0.218,0.293-0.318,0.445c-0.062,0.092-0.106,0.191-0.158,0.288
		c-0.035,0.063-0.064,0.134-0.101,0.196c-0.226,0.389-0.202,0.814-0.182,1.238c0.011,0.203,0.037,0.414,0.104,0.604
		c0.039,0.107,0.164,0.197,0.269,0.27c0.104,0.073,0.223,0.123,0.368,0.069c0.034-0.013,0.112,0.099,0.17,0.153
		c-0.01,0.016-0.021,0.031-0.031,0.047c0.126,0.041,0.257,0.072,0.376,0.128c0.045,0.021,0.089,0.094,0.094,0.146
		c0.014,0.133,0.005,0.269,0.005,0.404c-0.102,0.026-1.899,0.1-2.039-0.08c-0.077-0.101-0.556-1.505-0.979-1.726
		c-0.077-0.06-0.242,0.049-0.265,0.184c-0.042,0.271-0.185,1.214-0.227,1.429c-0.042,0.004-0.093,0.007-0.163,0.013
		c0.017-0.213-0.095-2.177-0.099-2.295c-0.006-0.231,0.121-0.414,0.281-0.565c0.126-0.117,0.275-0.212,0.414-0.316
		c0.008-0.004,0.021-0.006,0.031-0.004c0.256,0.056,0.379-0.146,0.561-0.26c0.278-0.177,0.482-0.42,0.702-0.646
		c0.199-0.205,0.336-0.471,0.531-0.682c0.148-0.162,0.205-0.326,0.194-0.539c-0.003-0.09,0.047-0.192,0.097-0.274
		c0.209-0.34,0.431-0.673,0.638-1.015c0.033-0.053,0.024-0.135,0.027-0.203c0.003-0.139,0-0.277,0-0.473
		c-0.091,0.045-0.152,0.075-0.215,0.106c-0.161,0.078-0.291,0.218-0.494,0.217c-0.052-0.001-0.126,0.091-0.153,0.155
		c-0.074,0.175-0.278,0.32-0.489,0.312c0-0.152,0-0.305,0-0.464c-0.134-0.017-0.23-0.024-0.324,0.084
		c-0.068,0.08-0.194,0.109-0.279,0.181c-0.084,0.068-0.15,0.162-0.207,0.26c-0.271,0.097-0.379,0.009-0.354-0.286
		c0.006-0.074,0.009-0.147,0.012-0.203c-0.144-0.05-0.292-0.065-0.396-0.144c-0.232-0.172-0.484-0.049-0.724-0.086
		c-0.072-0.013-0.147-0.002-0.237-0.002c0.027-0.194-0.084-0.219-0.231-0.213c-0.179,0.006-0.233-0.067-0.25-0.246
		c-0.025-0.248-0.062-0.496-0.11-0.742c-0.013-0.062-0.098-0.105-0.137-0.166c-0.087-0.131-0.183-0.26-0.245-0.403
		c-0.082-0.188-0.121-0.396-0.209-0.579c-0.028-0.059-0.155-0.07-0.258-0.111c-0.026-0.06-0.116-0.162-0.096-0.229
		c0.061-0.196,0.054-0.375-0.018-0.562c-0.021-0.057,0.004-0.127,0.005-0.192c0.001-0.078-0.038-0.107-0.112-0.144
		c-0.24-0.113-0.453-0.25-0.588-0.509c-0.077-0.146-0.07-0.278-0.079-0.421c-0.018-0.273-0.057-0.32-0.325-0.32
		c-0.112-0.002-0.225-0.002-0.332-0.002c-0.019-0.074-0.033-0.134-0.048-0.191c-0.014,0.004-0.025,0.007-0.039,0.011
		c-0.006,0.013-0.015,0.024-0.02,0.04c-0.015,0.045-0.027,0.09-0.041,0.136c-0.05-0.046-0.107-0.087-0.145-0.142
		c-0.02-0.029-0.012-0.085-0.002-0.126c0.036-0.146,0.063-0.296,0.124-0.431c0.032-0.068,0.127-0.115,0.199-0.16
		c0.075-0.047,0.157-0.082,0.235-0.123c-0.007-0.021-0.013-0.041-0.019-0.062c-0.072,0.013-0.144,0.023-0.216,0.034
		c0.002,0.012,0.004,0.021,0.007,0.034c-0.043-0.025-0.083-0.054-0.127-0.075C8.25,23.04,8.203,22.997,8.207,22.9
		c0.007-0.17,0.122-0.307,0.3-0.297c0.154,0.007,0.271-0.039,0.376-0.149c0.059-0.062,0.145-0.097,0.208-0.155
		c0.104-0.097,0.13-0.359,0.055-0.478c-0.103-0.157-0.089-0.313,0.033-0.444c0.067-0.072,0.126-0.156,0.2-0.22
		c0.07-0.062,0.156-0.101,0.292-0.147c-0.03-0.06-0.079-0.117-0.086-0.178c-0.013-0.107-0.015-0.225,0.013-0.327
		c0.014-0.057,0.099-0.094,0.152-0.14C9.765,20.473,9.785,20.358,9.745,20.374z"/>
</g>
</svg>